<?xml version="1.0" encoding="utf-8"?>
<!-- Generator: Adobe Illustrator 18.1.1, SVG Export Plug-In . SVG Version: 6.00 Build 0)  -->
<svg version="1.1" id="Layer_1" xmlns="http://www.w3.org/2000/svg" xmlns:xlink="http://www.w3.org/1999/xlink" x="0px" y="0px"
	 viewBox="0 0 352.5 256.7" enable-background="new 0 0 352.5 256.7" xml:space="preserve">
<path fill="#8B9A44" d="M139.9,34.3c0.9,0,1.8-0.4,2.4-1c0.6-0.6,1-1.5,1-2.4c0-0.9-0.4-1.8-1-2.4c-0.6-0.6-1.5-1-2.4-1
	s-1.8,0.4-2.4,1c-0.6,0.6-1,1.5-1,2.4c0,0.9,0.4,1.8,1,2.4C138.1,34,139,34.3,139.9,34.3z"/>
<path fill="#8B9A44" d="M349.2,84.5H172.7c-0.1,0-0.2,0-0.3,0c-9.8,0-19.5,0.9-29.1,2.6v-7.4c12.4-10.5,19.2-24.3,19.2-38.9
	c0-15.2-7.3-29.4-20.5-40c-1.3-1-3-1-4.3,0c-13.2,10.6-20.5,24.8-20.5,40c0,14.7,6.8,28.4,19.2,38.9v8.8c-6.5,1.5-13,3.4-19.3,5.7
	V74.1c0-0.9-0.4-1.8-1-2.4v0L97,52.3c-0.6-0.6-1.5-1-2.4-1H55.3c-0.9,0-1.8,0.4-2.4,1L33.6,71.7v0c-0.6,0.6-1,1.5-1,2.4v13.1
	c-2.4-0.4-4.8-0.8-7.2-1.2V73.8C34.8,65.7,40,55.2,40,44c0-11.7-5.6-22.7-15.8-30.9c-1.3-1-3-1-4.3,0C9.6,21.3,4,32.2,4,44
	c0,11.2,5.2,21.8,14.5,29.8v11.5c-5-0.5-10.1-0.7-15.1-0.7C1.5,84.5,0,86.1,0,88s1.5,3.4,3.4,3.4c27.5,0,54.3,7.3,78,21.1
	c-5.7,3.9-11.1,8.1-16.2,12.6c-19.2-9.8-40.5-14.9-61.8-14.9c-1.9,0-3.4,1.5-3.4,3.4c0,1.9,1.5,3.4,3.4,3.4
	c19.4,0,38.8,4.5,56.4,13.1c-5.2,5.1-10.1,10.5-14.6,16.2c-13.4-5.6-27.4-8.4-41.8-8.4c-1.9,0-3.4,1.5-3.4,3.4
	c0,1.9,1.5,3.4,3.4,3.4c12.9,0,25.5,2.4,37.5,7.3c-2.4,3.3-4.6,6.7-6.8,10.2l-5.2,8.6c-1,1.6-0.5,3.7,1.1,4.7
	c0.6,0.3,1.2,0.5,1.8,0.5c1.2,0,2.3-0.6,2.9-1.6l5.2-8.6c2.7-4.5,5.7-8.8,8.8-12.9c0.1-0.1,0.2-0.3,0.3-0.4
	c22.6-29.5,55.3-49.9,91.4-57.6c0,0,0,0,0,0c10.4-2.2,21-3.3,31.8-3.3h176.8c1.9,0,3.4-1.5,3.4-3.4C352.5,86,351,84.5,349.2,84.5z
	 M22,37.8c-1.9,0-3.4,1.5-3.4,3.4v22.9c-5-5.9-7.7-12.9-7.7-20.1c0-8.8,3.9-17.1,11.1-23.7c7.2,6.6,11.1,14.9,11.1,23.7
	c0,7.2-2.7,14.2-7.7,20.1V41.2C25.4,39.3,23.9,37.8,22,37.8z M55.3,59.6l11,11h-22L55.3,59.6z M59.4,94.5c-2.7-1-5.5-1.9-8.2-2.8
	v-2.6h8.2V94.5z M71.1,99.4c-1.6-0.7-3.2-1.4-4.8-2.1V85.7c0-1.9-1.5-3.4-3.4-3.4H47.7c-1.9,0-3.4,1.5-3.4,3.4v4.1
	c-1.6-0.4-3.2-0.8-4.8-1.2V77.5h31.6V99.4z M63.6,58.2h29.6l12.4,12.5H76L63.6,58.2z M110.4,96.9c-5.9,2.4-11.6,5.2-17.2,8.3
	c-1.8,1-3.5,2-5.3,3.1c-3.2-2-6.6-3.8-9.9-5.6V77.5h32.4V96.9z M139.9,40.5c-1.9,0-3.4,1.5-3.4,3.4v26.3c-8-8.5-12.4-18.7-12.4-29.5
	c0-12.2,5.6-23.8,15.8-32.8c10.2,9.1,15.8,20.6,15.8,32.8c0,10.8-4.3,21-12.4,29.5V44C143.4,42.1,141.8,40.5,139.9,40.5z"/>
<path fill="#675D4C" d="M130.6,176.6c-8.1,0-14.1-2.7-18-8c-3.9-5.3-5.8-13.6-5.8-24.8c0-11,2-19.2,6-24.5c4-5.3,9.9-7.9,17.9-7.9
	c1.2,0,2.3,0.1,3.4,0.2c1.1,0.2,2.2,0.4,3.2,0.6c1,0.2,1.9,0.5,2.6,0.9c0.5,0.2,0.9,0.4,1.1,0.7c0.3,0.3,0.4,0.7,0.4,1.3
	c0,0.4,0,0.9-0.1,1.4c-0.1,0.5-0.2,1-0.4,1.5c-0.2,0.5-0.4,0.8-0.6,1.1c-0.2,0.3-0.5,0.4-0.9,0.4c-0.5,0-1.1-0.1-1.9-0.3
	c-0.8-0.2-1.7-0.4-2.8-0.6c-1.1-0.2-2.5-0.3-4.1-0.3c-3.7,0-6.6,0.9-8.9,2.6s-4,4.5-5,8.2c-1.1,3.8-1.6,8.6-1.6,14.6
	c0,6,0.5,11,1.6,14.8c1.1,3.8,2.7,6.6,5,8.4c2.3,1.8,5.2,2.7,8.9,2.7c1.4,0,2.7-0.1,3.8-0.3c1.1-0.2,2.1-0.4,2.9-0.7
	c0.8-0.3,1.5-0.5,2.1-0.7c0.5-0.2,0.9-0.3,1.2-0.3c0.3,0,0.6,0.1,0.9,0.4c0.3,0.3,0.5,0.6,0.7,1.1c0.2,0.5,0.3,1,0.4,1.5
	c0.1,0.5,0.1,1.1,0.1,1.6c0,0.3-0.1,0.6-0.3,1c-0.2,0.3-0.6,0.7-1.2,1c-0.9,0.4-1.8,0.8-2.9,1.1c-1.1,0.3-2.3,0.6-3.6,0.8
	C133.4,176.5,132,176.6,130.6,176.6z"/>
<path fill="#675D4C" d="M147.9,176.2c-1.2,0-2-0.2-2.6-0.5s-0.8-0.7-0.8-1.1c0-0.2,0-0.4,0-0.5c0-0.2,0.1-0.4,0.1-0.6l16.8-60
	c0.2-0.6,0.6-1.1,1.2-1.3c0.6-0.3,1.4-0.4,2.5-0.4h2.9c1.1,0,1.9,0.1,2.5,0.4c0.6,0.3,1,0.7,1.1,1.3l16.7,60
	c0.1,0.2,0.1,0.5,0.2,0.6c0.1,0.2,0.1,0.4,0.1,0.5c0,0.4-0.3,0.8-0.8,1.1s-1.4,0.5-2.6,0.5h-1.6c-0.9,0-1.6-0.1-2.2-0.3
	c-0.6-0.2-1-0.6-1.1-1.1l-12.5-47.1c-0.2-0.9-0.4-1.8-0.6-2.8c-0.2-1-0.3-1.9-0.4-2.8h-0.5c-0.2,0.9-0.4,1.8-0.5,2.8
	c-0.2,1-0.4,1.9-0.6,2.8l-12.6,47.1c-0.1,0.5-0.5,0.9-1.1,1.1c-0.6,0.2-1.3,0.3-2.2,0.3H147.9z M153.6,159.5v-6.8h26v6.8H153.6z"/>
<path fill="#675D4C" d="M200.3,176.2c-1.3,0-2.3-0.2-2.9-0.5c-0.6-0.4-0.9-0.9-0.9-1.5v-60.4c0-0.7,0.3-1.2,0.9-1.5
	c0.6-0.3,1.5-0.5,2.9-0.5h2c1.4,0,2.5,0.1,3.2,0.4c0.7,0.3,1.2,0.7,1.4,1.2l11.4,28.7c0.3,0.7,0.6,1.5,0.9,2.2s0.5,1.5,0.6,2.2
	c0.1-0.7,0.3-1.5,0.6-2.2c0.3-0.7,0.6-1.5,0.8-2.2l11.4-28.7c0.2-0.5,0.7-1,1.5-1.2s1.8-0.4,3.1-0.4h2c1.4,0,2.4,0.2,2.9,0.5
	c0.5,0.3,0.8,0.8,0.8,1.5v60.4c0,0.6-0.3,1.1-0.8,1.5c-0.5,0.4-1.5,0.5-2.9,0.5h-0.7c-1.3,0-2.3-0.2-2.9-0.5
	c-0.6-0.4-0.9-0.9-0.9-1.5v-40.1c0-1.1,0-2.2,0.1-3.3c0.1-1.1,0.2-2.2,0.3-3.2l-0.4-0.2c-0.4,1-0.8,2.1-1.1,3.1
	c-0.3,1-0.7,2.1-1.2,3.2l-7.4,18.5c-0.3,0.8-0.8,1.3-1.6,1.6c-0.8,0.2-1.8,0.4-3,0.4h-1.3c-1.2,0-2.1-0.1-2.9-0.4
	c-0.8-0.2-1.3-0.8-1.6-1.6l-7.4-18.5c-0.4-1.1-0.8-2.2-1.2-3.2c-0.4-1-0.8-2.1-1.2-3.1l-0.4,0.2c0.1,1.1,0.2,2.2,0.3,3.2
	c0.1,1.1,0.1,2.2,0.1,3.3v40.1c0,0.6-0.3,1.1-0.8,1.5c-0.5,0.4-1.5,0.5-2.9,0.5H200.3z"/>
<path fill="#675D4C" d="M261.6,176.2c-1.3,0-2.3-0.2-2.9-0.5c-0.6-0.4-0.9-0.9-0.9-1.5v-59.5c0-1.8,0.9-2.7,2.8-2.7h13.5
	c5.7,0,9.9,1.5,12.8,4.6c2.9,3.1,4.3,7.7,4.3,13.8c0,6.1-1.4,10.7-4.3,13.8c-2.9,3.1-7.1,4.6-12.8,4.6h-8.1v25.4
	c0,0.6-0.3,1.1-0.8,1.5c-0.5,0.4-1.5,0.5-2.9,0.5H261.6z M266.1,141.8h8.1c3.1,0,5.4-0.9,6.7-2.7c1.4-1.8,2.1-4.7,2.1-8.7
	c0-4-0.7-6.9-2.1-8.7c-1.4-1.8-3.6-2.7-6.7-2.7h-8.1V141.8z"/>
<path fill="#675D4C" d="M322,176.6c-7.4,0-13.1-2.7-17-8.1c-4-5.4-6-13.6-6-24.7c0-11.1,2-19.3,6-24.5c4-5.2,9.6-7.9,17-7.9
	c7.4,0,13,2.6,17,7.9c3.9,5.3,5.9,13.4,5.9,24.5c0,11.1-2,19.3-5.9,24.7C335.1,173.9,329.4,176.6,322,176.6z M322,169.6
	c5,0,8.7-2.1,11-6.3c2.3-4.2,3.5-10.7,3.5-19.5c0-8.7-1.2-15.1-3.5-19.3c-2.4-4.1-6-6.2-11-6.2c-5,0-8.7,2.1-11.1,6.2
	c-2.4,4.1-3.6,10.5-3.6,19.3c0,8.8,1.2,15.4,3.6,19.5C313.3,167.5,317,169.6,322,169.6z"/>
<path fill="#675D4C" d="M110.8,256.3c-1.4,0-2.3-0.2-3-0.5c-0.6-0.4-1-0.8-1-1.3c0-0.2,0-0.4,0.1-0.6c0-0.2,0.1-0.5,0.2-0.7
	l19.5-69.8c0.2-0.7,0.7-1.2,1.4-1.5c0.7-0.3,1.7-0.5,2.9-0.5h3.4c1.3,0,2.3,0.2,2.9,0.5c0.7,0.3,1.1,0.8,1.3,1.5l19.4,69.8
	c0.1,0.3,0.1,0.5,0.2,0.7c0.1,0.2,0.1,0.4,0.1,0.6c0,0.5-0.3,0.9-1,1.3c-0.6,0.4-1.6,0.5-3,0.5h-1.8c-1,0-1.8-0.1-2.6-0.4
	c-0.7-0.2-1.1-0.7-1.3-1.3L134,199.8c-0.3-1-0.5-2.1-0.7-3.2c-0.2-1.2-0.3-2.3-0.5-3.2h-0.5c-0.2,1-0.4,2.1-0.6,3.2
	c-0.2,1.2-0.4,2.3-0.7,3.2l-14.7,54.8c-0.1,0.6-0.6,1.1-1.3,1.3c-0.7,0.2-1.6,0.4-2.6,0.4H110.8z M117.4,236.9V229h30.3v7.9H117.4z"
	/>
<path fill="#675D4C" d="M171.7,256.3c-1.6,0-2.7-0.2-3.4-0.6c-0.7-0.4-1-1-1-1.7v-70.3c0-0.8,0.3-1.4,1-1.8c0.7-0.4,1.8-0.6,3.4-0.6
	h2.3c1.6,0,2.9,0.2,3.7,0.5c0.8,0.3,1.4,0.8,1.7,1.4l13.2,33.3c0.4,0.9,0.7,1.7,1,2.6c0.3,0.9,0.5,1.7,0.7,2.6
	c0.1-0.9,0.4-1.7,0.7-2.6c0.4-0.9,0.7-1.7,1-2.6l13.2-33.3c0.3-0.6,0.9-1.1,1.7-1.4c0.9-0.3,2.1-0.5,3.6-0.5h2.3
	c1.6,0,2.8,0.2,3.4,0.6c0.6,0.4,1,1,1,1.8V254c0,0.7-0.3,1.3-1,1.7c-0.6,0.4-1.8,0.6-3.4,0.6H216c-1.6,0-2.7-0.2-3.4-0.6
	c-0.7-0.4-1-1-1-1.7v-46.7c0-1.3,0.1-2.5,0.2-3.8c0.1-1.2,0.2-2.5,0.4-3.8l-0.4-0.2c-0.5,1.2-0.9,2.4-1.3,3.6
	c-0.4,1.2-0.9,2.5-1.4,3.7l-8.6,21.5c-0.4,0.9-1,1.5-1.9,1.8c-0.9,0.3-2,0.4-3.5,0.4h-1.5c-1.4,0-2.5-0.1-3.4-0.4
	c-0.9-0.3-1.6-0.9-1.9-1.8l-8.6-21.5c-0.5-1.3-1-2.5-1.4-3.7c-0.4-1.2-0.9-2.4-1.4-3.6l-0.4,0.2c0.1,1.3,0.3,2.5,0.4,3.8
	c0.1,1.2,0.2,2.5,0.2,3.8V254c0,0.7-0.3,1.3-1,1.7c-0.6,0.4-1.8,0.6-3.4,0.6H171.7z"/>
<path fill="#675D4C" d="M261.2,256.7c-8.6,0-15.2-3.1-19.8-9.4c-4.6-6.2-6.9-15.8-6.9-28.8c0-12.9,2.3-22.4,6.9-28.5
	c4.6-6.1,11.2-9.2,19.8-9.2c8.6,0,15.2,3.1,19.8,9.2c4.6,6.1,6.9,15.6,6.9,28.5c0,12.9-2.3,22.5-6.9,28.8
	C276.4,253.6,269.8,256.7,261.2,256.7z M261.2,248.6c5.8,0,10.1-2.4,12.8-7.3c2.7-4.9,4.1-12.4,4.1-22.7c0-10.2-1.4-17.6-4.1-22.4
	c-2.7-4.8-7-7.2-12.8-7.2c-5.8,0-10.1,2.4-12.9,7.2c-2.8,4.8-4.2,12.3-4.2,22.4c0,10.3,1.4,17.9,4.2,22.7
	C251.1,246.2,255.4,248.6,261.2,248.6z"/>
<path fill="#675D4C" d="M305.3,256.3c-1.6,0-2.7-0.2-3.4-0.6c-0.7-0.4-1-1-1-1.7v-69.2c0-2.1,1.1-3.2,3.3-3.2h15.3
	c6.7,0,11.8,1.8,15.2,5.4c3.4,3.6,5.1,8.9,5.1,16c0,2.7-0.3,5.2-1,7.6c-0.6,2.3-1.7,4.3-3.2,5.9s-3.5,2.8-6,3.5v0.4
	c1.8,0.9,3.4,2.2,4.6,3.8c1.2,1.6,2.3,3.9,3.2,6.7l6.7,21c0.1,0.6,0.3,1.1,0.4,1.7c0.1,0.5,0.2,0.9,0.2,1.2c0,0.7-0.3,1.2-1,1.3
	c-0.6,0.2-1.7,0.3-3.1,0.3h-1.6c-1.2,0-2.1-0.2-2.8-0.5s-1.1-0.9-1.3-1.6l-6.5-20.5c-0.9-2.8-1.8-4.9-2.7-6.4
	c-1-1.5-2.1-2.5-3.5-3.1c-1.4-0.6-3.1-0.9-5.1-0.9h-6.7V254c0,0.7-0.3,1.3-1,1.7c-0.6,0.4-1.8,0.6-3.4,0.6H305.3z M310.5,215.2h9.4
	c3.6,0,6.2-1,7.8-2.9c1.6-1.9,2.4-5,2.4-9.4c0-4.7-0.8-8.1-2.4-10.2c-1.6-2.1-4.2-3.1-7.8-3.1h-9.4V215.2z"/>
<g>
	<path fill="#675D4C" d="M178.6,70.3c-0.3,0-0.5,0-0.7-0.1c-0.1-0.1-0.2-0.2-0.2-0.3c0,0,0-0.1,0-0.1c0-0.1,0-0.2,0.1-0.3l3.3-13.2
		c0.1-0.2,0.2-0.4,0.4-0.5c0.2-0.1,0.5-0.1,0.8-0.1h1.3c0.3,0,0.6,0,0.8,0.1c0.2,0.1,0.3,0.3,0.4,0.5l3.3,13.2c0,0.1,0,0.2,0.1,0.3
		s0,0.1,0,0.1c0,0.1-0.1,0.2-0.2,0.3c-0.1,0.1-0.4,0.1-0.7,0.1h-0.8c-0.3,0-0.5,0-0.7-0.1c-0.2-0.1-0.3-0.2-0.3-0.4l-2.2-9.9
		c-0.1-0.3-0.1-0.5-0.1-0.8s-0.1-0.5-0.1-0.7h-0.1c0,0.2-0.1,0.5-0.1,0.7c0,0.3-0.1,0.5-0.1,0.8l-2.1,9.9c0,0.2-0.2,0.3-0.3,0.4
		c-0.2,0.1-0.4,0.1-0.6,0.1H178.6z M180,67v-2.2h5.7V67H180z"/>
	<path fill="#675D4C" d="M190.2,74.6c-0.4,0-0.7-0.1-0.8-0.2c-0.2-0.1-0.3-0.3-0.3-0.4V62.8c0-0.6,0-1.1-0.1-1.5
		c0-0.4-0.1-0.7-0.1-0.9c0-0.2-0.1-0.4-0.1-0.5s0.1-0.2,0.2-0.3s0.4-0.1,0.6-0.2s0.5-0.1,0.7-0.1c0.2,0,0.4,0,0.5,0
		c0.2,0,0.3,0,0.3,0.1c0.1,0.1,0.1,0.2,0.2,0.4c0.1,0.2,0.1,0.5,0.2,0.9c0.2-0.3,0.4-0.6,0.6-0.8s0.5-0.4,0.8-0.5
		c0.3-0.1,0.6-0.2,0.9-0.2c0.7,0,1.3,0.2,1.7,0.7c0.5,0.4,0.9,1.1,1.1,1.9c0.3,0.8,0.4,1.9,0.4,3c0,1.2-0.1,2.2-0.4,3.1
		c-0.3,0.8-0.7,1.5-1.2,1.9s-1.1,0.7-1.7,0.7c-0.3,0-0.6,0-0.9-0.1c-0.3-0.1-0.5-0.2-0.7-0.4c-0.2-0.2-0.4-0.3-0.6-0.5V74
		c0,0.2-0.1,0.3-0.3,0.4c-0.2,0.1-0.5,0.2-0.9,0.2H190.2z M193.1,68.2c0.5,0,0.9-0.3,1.1-0.8s0.3-1.4,0.3-2.7c0-1.3-0.1-2.2-0.4-2.7
		s-0.6-0.8-1.1-0.8c-0.3,0-0.5,0.1-0.7,0.2c-0.2,0.1-0.4,0.3-0.6,0.5v5.5c0.2,0.2,0.4,0.4,0.6,0.6C192.6,68.2,192.9,68.2,193.1,68.2
		z"/>
	<path fill="#675D4C" d="M201.7,70.4c-1,0-1.7-0.3-2.2-0.9s-0.8-1.4-0.8-2.4c0-0.6,0.1-1.1,0.3-1.5c0.2-0.5,0.5-0.9,0.9-1.2
		c0.4-0.4,1-0.6,1.7-0.8c0.7-0.2,1.5-0.3,2.5-0.3v-0.6c0-0.3,0-0.5-0.1-0.8c-0.1-0.2-0.2-0.4-0.5-0.5c-0.2-0.1-0.5-0.2-0.9-0.2
		c-0.5,0-1,0.1-1.4,0.2c-0.4,0.1-0.7,0.2-1,0.3c-0.3,0.1-0.5,0.2-0.6,0.2c-0.1,0-0.2-0.1-0.2-0.2s-0.1-0.2-0.2-0.4
		c0-0.2-0.1-0.3-0.1-0.5c0-0.2,0-0.3,0-0.4c0-0.1,0.1-0.3,0.3-0.4c0.2-0.1,0.5-0.3,0.8-0.4s0.8-0.2,1.2-0.3c0.4-0.1,0.9-0.1,1.3-0.1
		c0.7,0,1.3,0.1,1.8,0.2s0.9,0.4,1.3,0.7c0.3,0.3,0.6,0.7,0.7,1.1c0.1,0.4,0.2,0.9,0.2,1.4v4.2c0,0.6,0,1.1,0.1,1.5
		c0,0.4,0.1,0.6,0.1,0.9s0.1,0.4,0.1,0.5c0,0.1-0.1,0.2-0.2,0.3c-0.2,0.1-0.4,0.2-0.6,0.2c-0.2,0-0.4,0.1-0.7,0.1
		c-0.2,0-0.4,0-0.5,0c-0.2,0-0.3,0-0.4-0.1c-0.1-0.1-0.2-0.2-0.2-0.4c-0.1-0.2-0.1-0.4-0.2-0.7c-0.1,0.2-0.3,0.4-0.6,0.6
		c-0.2,0.2-0.5,0.4-0.9,0.5C202.5,70.4,202.1,70.4,201.7,70.4z M202.6,68.4c0.2,0,0.4,0,0.6-0.1c0.2-0.1,0.4-0.2,0.5-0.3
		s0.3-0.3,0.4-0.5V65c-0.5,0-0.9,0-1.3,0.1c-0.3,0.1-0.6,0.2-0.8,0.4c-0.2,0.2-0.4,0.4-0.5,0.6s-0.1,0.5-0.1,0.9
		c0,0.5,0.1,0.8,0.3,1.1S202.2,68.4,202.6,68.4z"/>
	<path fill="#675D4C" d="M210,70.3c-0.4,0-0.7-0.1-0.9-0.2c-0.2-0.1-0.3-0.3-0.3-0.5v-6.9c0-0.6,0-1.1-0.1-1.5
		c0-0.4-0.1-0.7-0.1-0.9c0-0.2-0.1-0.4-0.1-0.5s0.1-0.2,0.2-0.3s0.3-0.1,0.6-0.2c0.2,0,0.4-0.1,0.6-0.1s0.4,0,0.5,0
		c0.2,0,0.3,0,0.4,0.1c0.1,0.1,0.1,0.2,0.2,0.5c0.1,0.2,0.1,0.5,0.2,1c0.1-0.3,0.3-0.6,0.6-0.9s0.5-0.5,0.8-0.6s0.6-0.2,0.9-0.2
		c0.3,0,0.5,0.1,0.6,0.2c0.1,0.1,0.1,0.4,0.1,0.6c0,0.1,0,0.3,0,0.5c0,0.2-0.1,0.4-0.1,0.6s-0.1,0.4-0.2,0.5s-0.2,0.2-0.3,0.2
		c-0.1,0-0.3,0-0.4-0.1s-0.3-0.1-0.6-0.1c-0.3,0-0.5,0.1-0.7,0.2c-0.2,0.1-0.4,0.3-0.5,0.5v7.3c0,0.2-0.1,0.3-0.3,0.5
		c-0.2,0.1-0.5,0.2-0.9,0.2H210z"/>
	<path fill="#675D4C" d="M217.7,70.4c-0.5,0-0.9-0.1-1.3-0.3c-0.4-0.2-0.7-0.5-0.9-0.9c-0.2-0.4-0.3-1-0.3-1.7v-6.1h-0.6
		c-0.4,0-0.6-0.3-0.6-0.9v-0.3c0-0.6,0.2-0.9,0.6-0.9h0.6l0.3-2.1c0-0.2,0.1-0.4,0.3-0.5s0.4-0.1,0.7-0.1h0.5c0.3,0,0.6,0,0.7,0.1
		c0.1,0.1,0.2,0.3,0.2,0.5v2.1h1.1c0.4,0,0.6,0.3,0.6,0.9v0.3c0,0.6-0.2,0.9-0.6,0.9h-1.1v5.9c0,0.4,0,0.6,0.1,0.8
		c0.1,0.2,0.3,0.2,0.5,0.2c0.2,0,0.3,0,0.4,0c0.1,0,0.2,0,0.3,0c0.1,0,0.1,0.1,0.2,0.2c0.1,0.1,0.1,0.2,0.2,0.4
		c0,0.1,0.1,0.3,0.1,0.5c0,0.2,0,0.3,0,0.3c0,0.2-0.1,0.3-0.3,0.5s-0.4,0.2-0.7,0.3S218,70.4,217.7,70.4z"/>
	<path fill="#675D4C" d="M223.5,70.4c-1,0-1.7-0.3-2.2-0.9s-0.8-1.4-0.8-2.4c0-0.6,0.1-1.1,0.3-1.5c0.2-0.5,0.5-0.9,0.9-1.2
		c0.4-0.4,1-0.6,1.7-0.8c0.7-0.2,1.5-0.3,2.5-0.3v-0.6c0-0.3,0-0.5-0.1-0.8c-0.1-0.2-0.2-0.4-0.5-0.5c-0.2-0.1-0.5-0.2-0.9-0.2
		c-0.5,0-1,0.1-1.4,0.2c-0.4,0.1-0.7,0.2-1,0.3c-0.3,0.1-0.5,0.2-0.6,0.2c-0.1,0-0.2-0.1-0.2-0.2s-0.1-0.2-0.2-0.4
		c0-0.2-0.1-0.3-0.1-0.5c0-0.2,0-0.3,0-0.4c0-0.1,0.1-0.3,0.3-0.4c0.2-0.1,0.5-0.3,0.8-0.4s0.8-0.2,1.2-0.3c0.4-0.1,0.9-0.1,1.3-0.1
		c0.7,0,1.3,0.1,1.8,0.2s0.9,0.4,1.3,0.7c0.3,0.3,0.6,0.7,0.7,1.1c0.1,0.4,0.2,0.9,0.2,1.4v4.2c0,0.6,0,1.1,0.1,1.5
		c0,0.4,0.1,0.6,0.1,0.9s0.1,0.4,0.1,0.5c0,0.1-0.1,0.2-0.2,0.3c-0.2,0.1-0.4,0.2-0.6,0.2c-0.2,0-0.4,0.1-0.7,0.1
		c-0.2,0-0.4,0-0.5,0c-0.2,0-0.3,0-0.4-0.1c-0.1-0.1-0.2-0.2-0.2-0.4c-0.1-0.2-0.1-0.4-0.2-0.7c-0.1,0.2-0.3,0.4-0.6,0.6
		c-0.2,0.2-0.5,0.4-0.9,0.5C224.3,70.4,224,70.4,223.5,70.4z M224.4,68.4c0.2,0,0.4,0,0.6-0.1c0.2-0.1,0.4-0.2,0.5-0.3
		s0.3-0.3,0.4-0.5V65c-0.5,0-0.9,0-1.3,0.1c-0.3,0.1-0.6,0.2-0.8,0.4c-0.2,0.2-0.4,0.4-0.5,0.6s-0.1,0.5-0.1,0.9
		c0,0.5,0.1,0.8,0.3,1.1S224,68.4,224.4,68.4z"/>
	<path fill="#675D4C" d="M231.8,70.3c-0.4,0-0.7-0.1-0.9-0.2c-0.2-0.1-0.3-0.3-0.3-0.5v-6.9c0-0.6,0-1.1-0.1-1.5
		c0-0.4-0.1-0.7-0.1-0.9c0-0.2-0.1-0.4-0.1-0.5s0.1-0.2,0.2-0.3s0.4-0.1,0.6-0.2s0.5-0.1,0.7-0.1c0.2,0,0.4,0,0.5,0
		c0.2,0,0.3,0,0.4,0.1c0.1,0.1,0.2,0.2,0.2,0.4c0.1,0.2,0.1,0.5,0.2,0.9c0.2-0.3,0.5-0.5,0.7-0.8c0.3-0.2,0.6-0.4,0.9-0.6
		c0.3-0.1,0.7-0.2,1.1-0.2c0.4,0,0.7,0.1,1.1,0.2c0.3,0.1,0.6,0.3,0.9,0.5c0.2,0.3,0.4,0.6,0.5,1c0.2-0.3,0.5-0.6,0.7-0.8
		s0.6-0.5,0.9-0.6c0.3-0.2,0.7-0.2,1.1-0.2c0.5,0,1,0.1,1.4,0.3c0.4,0.2,0.7,0.5,0.9,1c0.2,0.4,0.3,1,0.3,1.6v7.7
		c0,0.2-0.1,0.3-0.3,0.5c-0.2,0.1-0.5,0.2-0.9,0.2h-0.4c-0.4,0-0.7-0.1-0.9-0.2c-0.2-0.1-0.3-0.3-0.3-0.5v-7.1
		c0-0.4-0.1-0.7-0.2-0.9c-0.2-0.2-0.4-0.3-0.8-0.3c-0.2,0-0.4,0-0.5,0.1c-0.2,0.1-0.3,0.2-0.5,0.3c-0.2,0.1-0.3,0.3-0.4,0.5
		s-0.2,0.3-0.3,0.5l0-1.6c0.1,0.2,0.2,0.4,0.2,0.5s0.1,0.4,0.1,0.5v7.5c0,0.2-0.1,0.3-0.3,0.5c-0.2,0.1-0.5,0.2-0.9,0.2H237
		c-0.4,0-0.7-0.1-0.9-0.2c-0.2-0.1-0.3-0.3-0.3-0.5v-7.1c0-0.4-0.1-0.7-0.2-0.9c-0.2-0.2-0.4-0.3-0.8-0.3c-0.2,0-0.4,0-0.6,0.1
		c-0.2,0.1-0.4,0.2-0.5,0.4c-0.1,0.1-0.3,0.3-0.3,0.4v7.4c0,0.2-0.1,0.3-0.3,0.5c-0.2,0.1-0.5,0.2-0.9,0.2H231.8z"/>
	<path fill="#675D4C" d="M250.1,70.4c-1.6,0-2.7-0.5-3.5-1.4c-0.7-0.9-1.1-2.3-1.1-4.2c0-1.4,0.2-2.5,0.5-3.3
		c0.3-0.8,0.8-1.4,1.5-1.8s1.4-0.6,2.3-0.6c0.9,0,1.6,0.2,2.2,0.7s1,1.1,1.2,1.9c0.3,0.8,0.4,1.8,0.4,3c0,0.2,0,0.4-0.1,0.6
		c-0.1,0.2-0.2,0.3-0.3,0.4c-0.1,0.1-0.3,0.1-0.5,0.1h-4.5c0,0.9,0.2,1.5,0.5,1.9c0.3,0.4,0.8,0.6,1.5,0.6c0.4,0,0.8-0.1,1.2-0.2
		c0.3-0.1,0.6-0.2,0.9-0.3s0.4-0.2,0.5-0.2c0.1,0,0.2,0.1,0.3,0.3c0.1,0.2,0.1,0.4,0.2,0.6s0.1,0.4,0.1,0.5c0,0.2-0.1,0.4-0.3,0.5
		s-0.5,0.3-0.8,0.5c-0.3,0.1-0.7,0.2-1.1,0.3C250.7,70.4,250.4,70.4,250.1,70.4z M248.2,64.1h2.9c0-1-0.1-1.8-0.3-2.3
		c-0.2-0.5-0.6-0.7-1.1-0.7c-0.3,0-0.6,0.1-0.8,0.3c-0.2,0.2-0.4,0.5-0.5,0.9C248.3,62.8,248.2,63.3,248.2,64.1z"/>
	<path fill="#675D4C" d="M256.5,70.3c-0.4,0-0.7-0.1-0.9-0.2c-0.2-0.1-0.3-0.3-0.3-0.5v-6.9c0-0.6,0-1.1-0.1-1.5
		c0-0.4-0.1-0.7-0.1-0.9c0-0.2-0.1-0.4-0.1-0.5s0.1-0.2,0.2-0.3s0.4-0.1,0.6-0.2c0.2,0,0.5-0.1,0.7-0.1c0.2,0,0.4,0,0.5,0
		c0.2,0,0.3,0,0.4,0.1c0.1,0.1,0.2,0.2,0.2,0.4c0.1,0.2,0.1,0.5,0.2,0.9c0.2-0.3,0.5-0.5,0.8-0.8s0.6-0.4,1-0.6s0.7-0.2,1.1-0.2
		c0.5,0,1,0.1,1.4,0.3c0.4,0.2,0.7,0.5,0.9,1c0.2,0.4,0.3,1,0.3,1.6v7.7c0,0.2-0.1,0.3-0.3,0.5c-0.2,0.1-0.5,0.2-0.9,0.2h-0.4
		c-0.4,0-0.7-0.1-0.9-0.2c-0.2-0.1-0.3-0.3-0.3-0.5v-7.1c0-0.4-0.1-0.7-0.3-0.9c-0.2-0.2-0.5-0.3-0.9-0.3c-0.2,0-0.4,0-0.6,0.1
		c-0.2,0.1-0.4,0.2-0.5,0.4s-0.3,0.3-0.4,0.4v7.4c0,0.2-0.1,0.3-0.3,0.5c-0.2,0.1-0.5,0.2-0.9,0.2H256.5z"/>
	<path fill="#675D4C" d="M268.4,70.4c-0.5,0-0.9-0.1-1.3-0.3c-0.4-0.2-0.7-0.5-0.9-0.9c-0.2-0.4-0.3-1-0.3-1.7v-6.1h-0.6
		c-0.4,0-0.6-0.3-0.6-0.9v-0.3c0-0.6,0.2-0.9,0.6-0.9h0.6l0.3-2.1c0-0.2,0.1-0.4,0.3-0.5s0.4-0.1,0.7-0.1h0.5c0.3,0,0.6,0,0.7,0.1
		c0.1,0.1,0.2,0.3,0.2,0.5v2.1h1.1c0.4,0,0.6,0.3,0.6,0.9v0.3c0,0.6-0.2,0.9-0.6,0.9h-1.1v5.9c0,0.4,0,0.6,0.1,0.8
		c0.1,0.2,0.3,0.2,0.5,0.2c0.2,0,0.3,0,0.4,0c0.1,0,0.2,0,0.3,0c0.1,0,0.1,0.1,0.2,0.2c0.1,0.1,0.1,0.2,0.2,0.4
		c0,0.1,0.1,0.3,0.1,0.5c0,0.2,0,0.3,0,0.3c0,0.2-0.1,0.3-0.3,0.5s-0.4,0.2-0.7,0.3S268.7,70.4,268.4,70.4z"/>
	<path fill="#675D4C" d="M275.3,70.4c-1.4,0-2.4-0.5-3.1-1.5c-0.7-1-1.1-2.4-1.1-4.2c0-1.8,0.4-3.2,1.1-4.2c0.7-1,1.8-1.5,3.1-1.5
		c1.4,0,2.4,0.5,3.1,1.5c0.7,1,1.1,2.4,1.1,4.2c0,1.8-0.4,3.2-1.1,4.2C277.7,69.9,276.7,70.4,275.3,70.4z M275.3,68.3
		c0.5,0,0.9-0.3,1.1-0.8c0.2-0.5,0.3-1.4,0.3-2.7c0-1.3-0.1-2.2-0.3-2.7s-0.6-0.8-1.1-0.8c-0.5,0-0.9,0.3-1.1,0.8s-0.3,1.4-0.3,2.7
		c0,1.3,0.1,2.2,0.3,2.7C274.4,68,274.8,68.3,275.3,68.3z"/>
	<path fill="#675D4C" d="M283.7,70.4c-0.4,0-0.7,0-1.1-0.1c-0.3-0.1-0.7-0.2-0.9-0.3c-0.3-0.1-0.5-0.3-0.7-0.4
		c-0.2-0.2-0.3-0.3-0.3-0.5c0-0.2,0.1-0.4,0.2-0.6c0.1-0.2,0.3-0.5,0.4-0.6c0.2-0.2,0.3-0.3,0.4-0.3c0.1,0,0.2,0.1,0.3,0.2
		c0.1,0.1,0.3,0.2,0.6,0.3c0.2,0.1,0.5,0.2,0.8,0.2c0.4,0,0.7-0.1,0.9-0.3c0.2-0.2,0.3-0.4,0.3-0.8c0-0.3-0.1-0.5-0.2-0.7
		c-0.1-0.2-0.3-0.4-0.6-0.5c-0.3-0.2-0.5-0.3-0.8-0.5c-0.3-0.1-0.5-0.3-0.8-0.5c-0.3-0.2-0.5-0.4-0.7-0.6s-0.4-0.5-0.5-0.9
		c-0.1-0.3-0.2-0.7-0.2-1.2c0-0.7,0.1-1.3,0.4-1.7c0.3-0.5,0.7-0.9,1.2-1.1s1.1-0.4,1.7-0.4c0.3,0,0.5,0,0.9,0.1
		c0.3,0,0.6,0.1,0.9,0.2c0.3,0.1,0.5,0.2,0.6,0.3c0.2,0.1,0.2,0.3,0.2,0.5c0,0.1,0,0.3-0.1,0.6c-0.1,0.2-0.2,0.5-0.3,0.7
		s-0.2,0.3-0.3,0.3c-0.1,0-0.2-0.1-0.5-0.2c-0.2-0.1-0.6-0.2-0.9-0.2c-0.3,0-0.6,0.1-0.8,0.2c-0.2,0.2-0.3,0.4-0.3,0.7
		c0,0.3,0.1,0.5,0.2,0.7s0.4,0.3,0.6,0.5c0.3,0.1,0.5,0.3,0.8,0.5c0.3,0.2,0.5,0.3,0.8,0.5c0.2,0.2,0.5,0.4,0.6,0.7s0.3,0.5,0.4,0.9
		c0.1,0.3,0.2,0.7,0.2,1.1c0,0.7-0.1,1.3-0.4,1.8c-0.3,0.5-0.7,0.9-1.2,1.2S284.4,70.4,283.7,70.4z"/>
	<path fill="#675D4C" d="M292.7,70.3c-0.4,0-0.7-0.1-0.9-0.2c-0.2-0.1-0.3-0.3-0.3-0.5v-6.9c0-0.6,0-1.1-0.1-1.5
		c0-0.4-0.1-0.7-0.1-0.9c0-0.2-0.1-0.4-0.1-0.5s0.1-0.2,0.2-0.3s0.3-0.1,0.6-0.2c0.2,0,0.4-0.1,0.6-0.1s0.4,0,0.5,0
		c0.2,0,0.3,0,0.4,0.1c0.1,0.1,0.1,0.2,0.2,0.5c0.1,0.2,0.1,0.5,0.2,1c0.1-0.3,0.3-0.6,0.6-0.9s0.5-0.5,0.8-0.6s0.6-0.2,0.9-0.2
		c0.3,0,0.5,0.1,0.6,0.2c0.1,0.1,0.1,0.4,0.1,0.6c0,0.1,0,0.3,0,0.5c0,0.2-0.1,0.4-0.1,0.6s-0.1,0.4-0.2,0.5s-0.2,0.2-0.3,0.2
		c-0.1,0-0.3,0-0.4-0.1s-0.3-0.1-0.6-0.1c-0.3,0-0.5,0.1-0.7,0.2c-0.2,0.1-0.4,0.3-0.5,0.5v7.3c0,0.2-0.1,0.3-0.3,0.5
		c-0.2,0.1-0.5,0.2-0.9,0.2H292.7z"/>
	<path fill="#675D4C" d="M300.3,70.4c-0.8,0-1.5-0.2-1.9-0.7s-0.7-1.2-0.7-2.1v-7.7c0-0.2,0.1-0.4,0.3-0.5c0.2-0.1,0.5-0.2,0.9-0.2
		h0.5c0.4,0,0.7,0.1,0.8,0.2c0.2,0.1,0.3,0.3,0.3,0.5v7.2c0,0.4,0.1,0.6,0.2,0.8c0.2,0.2,0.4,0.3,0.8,0.3c0.2,0,0.4,0,0.6-0.1
		c0.2-0.1,0.4-0.2,0.6-0.3s0.3-0.3,0.4-0.5v-7.4c0-0.2,0.1-0.4,0.3-0.5c0.2-0.1,0.5-0.2,0.9-0.2h0.5c0.4,0,0.7,0.1,0.9,0.2
		c0.2,0.1,0.3,0.3,0.3,0.5v6.9c0,0.6,0,1.1,0.1,1.5c0,0.4,0.1,0.6,0.1,0.9c0,0.2,0.1,0.4,0.1,0.5c0,0.1-0.1,0.2-0.2,0.3
		c-0.2,0.1-0.4,0.2-0.6,0.2c-0.2,0-0.5,0.1-0.7,0.1c-0.2,0-0.4,0-0.5,0c-0.2,0-0.3,0-0.4-0.1c-0.1-0.1-0.2-0.2-0.2-0.4
		c-0.1-0.2-0.1-0.5-0.2-0.9c-0.2,0.3-0.5,0.5-0.8,0.8s-0.6,0.4-1,0.6C301.2,70.4,300.8,70.4,300.3,70.4z"/>
	<path fill="#675D4C" d="M309.1,70.3c-0.4,0-0.7-0.1-0.9-0.2c-0.2-0.1-0.3-0.3-0.3-0.5v-6.9c0-0.6,0-1.1-0.1-1.5
		c0-0.4-0.1-0.7-0.1-0.9c0-0.2-0.1-0.4-0.1-0.5s0.1-0.2,0.2-0.3s0.3-0.1,0.6-0.2c0.2,0,0.4-0.1,0.6-0.1s0.4,0,0.5,0
		c0.2,0,0.3,0,0.4,0.1c0.1,0.1,0.1,0.2,0.2,0.5c0.1,0.2,0.1,0.5,0.2,1c0.1-0.3,0.3-0.6,0.6-0.9s0.5-0.5,0.8-0.6s0.6-0.2,0.9-0.2
		c0.3,0,0.5,0.1,0.6,0.2c0.1,0.1,0.1,0.4,0.1,0.6c0,0.1,0,0.3,0,0.5c0,0.2-0.1,0.4-0.1,0.6s-0.1,0.4-0.2,0.5s-0.2,0.2-0.3,0.2
		c-0.1,0-0.3,0-0.4-0.1s-0.3-0.1-0.6-0.1c-0.3,0-0.5,0.1-0.7,0.2c-0.2,0.1-0.4,0.3-0.5,0.5v7.3c0,0.2-0.1,0.3-0.3,0.5
		c-0.2,0.1-0.5,0.2-0.9,0.2H309.1z"/>
	<path fill="#675D4C" d="M316.4,70.4c-1,0-1.7-0.3-2.2-0.9s-0.8-1.4-0.8-2.4c0-0.6,0.1-1.1,0.3-1.5c0.2-0.5,0.5-0.9,0.9-1.2
		c0.4-0.4,1-0.6,1.7-0.8c0.7-0.2,1.5-0.3,2.5-0.3v-0.6c0-0.3,0-0.5-0.1-0.8c-0.1-0.2-0.2-0.4-0.5-0.5c-0.2-0.1-0.5-0.2-0.9-0.2
		c-0.5,0-1,0.1-1.4,0.2c-0.4,0.1-0.7,0.2-1,0.3c-0.3,0.1-0.5,0.2-0.6,0.2c-0.1,0-0.2-0.1-0.2-0.2s-0.1-0.2-0.2-0.4
		c0-0.2-0.1-0.3-0.1-0.5c0-0.2,0-0.3,0-0.4c0-0.1,0.1-0.3,0.3-0.4c0.2-0.1,0.5-0.3,0.8-0.4s0.8-0.2,1.2-0.3c0.4-0.1,0.9-0.1,1.3-0.1
		c0.7,0,1.3,0.1,1.8,0.2s0.9,0.4,1.3,0.7c0.3,0.3,0.6,0.7,0.7,1.1c0.1,0.4,0.2,0.9,0.2,1.4v4.2c0,0.6,0,1.1,0.1,1.5
		c0,0.4,0.1,0.6,0.1,0.9s0.1,0.4,0.1,0.5c0,0.1-0.1,0.2-0.2,0.3c-0.2,0.1-0.4,0.2-0.6,0.2c-0.2,0-0.4,0.1-0.7,0.1
		c-0.2,0-0.4,0-0.5,0c-0.2,0-0.3,0-0.4-0.1c-0.1-0.1-0.2-0.2-0.2-0.4c-0.1-0.2-0.1-0.4-0.2-0.7c-0.1,0.2-0.3,0.4-0.6,0.6
		c-0.2,0.2-0.5,0.4-0.9,0.5C317.1,70.4,316.8,70.4,316.4,70.4z M317.2,68.4c0.2,0,0.4,0,0.6-0.1c0.2-0.1,0.4-0.2,0.5-0.3
		s0.3-0.3,0.4-0.5V65c-0.5,0-0.9,0-1.3,0.1c-0.3,0.1-0.6,0.2-0.8,0.4c-0.2,0.2-0.4,0.4-0.5,0.6S316,66.6,316,67
		c0,0.5,0.1,0.8,0.3,1.1S316.8,68.4,317.2,68.4z"/>
	<path fill="#675D4C" d="M326.1,70.4c-0.5,0-0.9-0.1-1.3-0.3c-0.4-0.2-0.7-0.5-0.9-0.9c-0.2-0.4-0.3-1-0.3-1.7V55.1
		c0-0.2,0.1-0.3,0.3-0.5c0.2-0.1,0.5-0.2,0.9-0.2h0.5c0.4,0,0.7,0.1,0.9,0.2c0.2,0.1,0.3,0.3,0.3,0.5v12.2c0,0.4,0,0.6,0.1,0.8
		c0.1,0.2,0.3,0.2,0.5,0.2c0.2,0,0.3,0,0.4,0c0.1,0,0.2,0,0.3,0c0.1,0,0.1,0.1,0.2,0.2c0.1,0.1,0.1,0.2,0.2,0.4
		c0,0.1,0.1,0.3,0.1,0.5c0,0.2,0,0.3,0,0.3c0,0.2-0.1,0.3-0.3,0.5s-0.4,0.2-0.7,0.3C326.7,70.4,326.4,70.4,326.1,70.4z"/>
	<path fill="#675D4C" d="M333.1,70.4c-1.6,0-2.7-0.5-3.5-1.4c-0.7-0.9-1.1-2.3-1.1-4.2c0-1.4,0.2-2.5,0.5-3.3
		c0.3-0.8,0.8-1.4,1.5-1.8s1.4-0.6,2.3-0.6c0.9,0,1.6,0.2,2.2,0.7s1,1.1,1.2,1.9c0.3,0.8,0.4,1.8,0.4,3c0,0.2,0,0.4-0.1,0.6
		c-0.1,0.2-0.2,0.3-0.3,0.4c-0.1,0.1-0.3,0.1-0.5,0.1h-4.5c0,0.9,0.2,1.5,0.5,1.9c0.3,0.4,0.8,0.6,1.5,0.6c0.4,0,0.8-0.1,1.2-0.2
		c0.3-0.1,0.6-0.2,0.9-0.3s0.4-0.2,0.5-0.2c0.1,0,0.2,0.1,0.3,0.3c0.1,0.2,0.1,0.4,0.2,0.6s0.1,0.4,0.1,0.5c0,0.2-0.1,0.4-0.3,0.5
		s-0.5,0.3-0.8,0.5c-0.3,0.1-0.7,0.2-1.1,0.3C333.8,70.4,333.4,70.4,333.1,70.4z M331.2,64.1h2.9c0-1-0.1-1.8-0.3-2.3
		c-0.2-0.5-0.6-0.7-1.1-0.7c-0.3,0-0.6,0.1-0.8,0.3c-0.2,0.2-0.4,0.5-0.5,0.9C331.3,62.8,331.3,63.3,331.2,64.1z"/>
	<path fill="#675D4C" d="M340.8,70.4c-0.4,0-0.7,0-1.1-0.1c-0.3-0.1-0.7-0.2-0.9-0.3c-0.3-0.1-0.5-0.3-0.7-0.4
		c-0.2-0.2-0.3-0.3-0.3-0.5c0-0.2,0.1-0.4,0.2-0.6c0.1-0.2,0.3-0.5,0.4-0.6c0.2-0.2,0.3-0.3,0.4-0.3c0.1,0,0.2,0.1,0.3,0.2
		c0.1,0.1,0.3,0.2,0.6,0.3c0.2,0.1,0.5,0.2,0.8,0.2c0.4,0,0.7-0.1,0.9-0.3c0.2-0.2,0.3-0.4,0.3-0.8c0-0.3-0.1-0.5-0.2-0.7
		c-0.1-0.2-0.3-0.4-0.6-0.5c-0.3-0.2-0.5-0.3-0.8-0.5c-0.3-0.1-0.5-0.3-0.8-0.5c-0.3-0.2-0.5-0.4-0.7-0.6s-0.4-0.5-0.5-0.9
		c-0.1-0.3-0.2-0.7-0.2-1.2c0-0.7,0.1-1.3,0.4-1.7c0.3-0.5,0.7-0.9,1.2-1.1s1.1-0.4,1.7-0.4c0.3,0,0.5,0,0.9,0.1
		c0.3,0,0.6,0.1,0.9,0.2c0.3,0.1,0.5,0.2,0.6,0.3c0.2,0.1,0.2,0.3,0.2,0.5c0,0.1,0,0.3-0.1,0.6c-0.1,0.2-0.2,0.5-0.3,0.7
		s-0.2,0.3-0.3,0.3c-0.1,0-0.2-0.1-0.5-0.2c-0.2-0.1-0.6-0.2-0.9-0.2c-0.3,0-0.6,0.1-0.8,0.2c-0.2,0.2-0.3,0.4-0.3,0.7
		c0,0.3,0.1,0.5,0.2,0.7s0.4,0.3,0.6,0.5c0.3,0.1,0.5,0.3,0.8,0.5c0.3,0.2,0.5,0.3,0.8,0.5c0.2,0.2,0.5,0.4,0.6,0.7s0.3,0.5,0.4,0.9
		c0.1,0.3,0.2,0.7,0.2,1.1c0,0.7-0.1,1.3-0.4,1.8c-0.3,0.5-0.7,0.9-1.2,1.2S341.5,70.4,340.8,70.4z"/>
</g>
</svg>
